<?xml version="1.0" encoding="UTF-8"?><svg id="Layer_1" xmlns="http://www.w3.org/2000/svg" viewBox="0 0 298.56 89.01"><defs><style>.cls-1{fill:#0994d2;stroke-width:0px;}</style></defs><path class="cls-1" d="M297.6,43.56c-.91-1.1-2.43-1.65-4.56-1.65s-4.73.75-7.6,2.25c-2.87,1.5-5.96,4.02-9.28,7.55-3.32,3.53-6.58,8.1-9.77,13.7.41-1.2,1.09-3,2.05-5.4,2.25-5.6,3.57-9.47,3.95-11.6.39-2.2.19-3.83-.59-4.9-.78-1.07-2.34-1.6-4.67-1.6s-4.97.88-7.92,2.65c-2.95,1.77-5.98,4.45-9.12,8.05-3.13,3.6-6.06,8-8.78,13.2.78-2.93,1.55-5.38,2.3-7.35.75-1.97,1.69-4.28,2.83-6.95,1.66-3.73,2.58-6.13,2.77-7.2.16-.93,0-1.57-.46-1.9-.48-.33-1.38-.5-2.71-.5-2.47,0-4.46.45-5.99,1.35-1.53.9-2.76,2.32-3.7,4.25-1.81,3.66-3.35,7.43-4.64,11.29-3.09.66-5.82,1.07-8.16,1.21.37-5.13-.68-9.45-3.17-12.95-2.48-3.5-6.26-5.25-11.32-5.25-4.13,0-8.1,1.12-11.89,3.35-3.79,2.23-7.01,5.33-9.64,9.3-.98,1.48-1.84,3.03-2.58,4.66-2.4.46-4.59.77-6.5.89.37-5.13-.68-9.45-3.17-12.95-2.48-3.5-6.26-5.25-11.32-5.25-4.13,0-8.1,1.12-11.89,3.35-3.79,2.23-7.01,5.33-9.64,9.3-1.66,2.5-2.97,5.21-3.94,8.14-.91.4-1.71.61-2.41.61-1.67,0-2.29-1.17-1.88-3.5.12-.67.68-2.33,1.68-5,1.19-3.33,1.86-5.43,2.01-6.3.76-4.33-1.02-6.5-5.35-6.5-2.2,0-4.75.77-7.66,2.3-2.9,1.53-6.04,4.1-9.41,7.7-3.37,3.6-6.66,8.27-9.87,14,.78-2.93,1.55-5.4,2.3-7.4.75-2,1.7-4.33,2.83-7,1.66-3.73,2.58-6.13,2.77-7.2.16-.93,0-1.57-.46-1.9-.48-.33-1.38-.5-2.71-.5-2.47,0-4.46.45-5.99,1.35-1.53.9-2.76,2.32-3.7,4.25-3.84,7.8-6.53,16.03-8.06,24.7-1.03,5.87-1.27,10.13-.71,12.8.56,2.67,2.11,4,4.64,4,2.07,0,3.68-.55,4.84-1.65,1.16-1.1,2.38-3.22,3.67-6.35,1.72-4.07,3.7-7.93,5.95-11.6,2.25-3.67,4.38-6.62,6.41-8.85,2.03-2.23,3.54-3.35,4.54-3.35.73,0,1.01.53.82,1.6-.08.47-.31,1.37-.68,2.7-.38,1-.65,2-.83,3-.54,3.07-.05,5.5,1.46,7.3,1.52,1.8,4.04,2.7,7.57,2.7,2.16,0,4.31-.41,6.44-1.23.05,1.78.31,3.49.77,5.13.9,3.2,2.6,5.77,5.09,7.7,2.49,1.93,5.74,2.9,9.74,2.9,4.73,0,9.26-1.68,13.59-5.05,4.33-3.37,7.62-7.85,9.87-13.45,2.12-.09,4.17-.31,6.18-.63-.33,3.03-.12,5.87.63,8.53.9,3.2,2.6,5.77,5.09,7.7,2.49,1.93,5.74,2.9,9.74,2.9,4.73,0,9.26-1.68,13.59-5.05,4.33-3.37,7.62-7.85,9.87-13.45,2.73-.11,5.36-.44,7.91-.94-.18.88-.36,1.75-.51,2.64-1.03,5.87-1.27,10.13-.71,12.8.56,2.67,2.11,4,4.65,4,2.07,0,3.68-.55,4.84-1.65,1.16-1.1,2.38-3.22,3.67-6.35,1.5-3.6,3.3-7.27,5.39-11,2.09-3.73,4.11-6.8,6.07-9.2,1.96-2.4,3.43-3.6,4.43-3.6.73,0,1.01.53.82,1.6-.24,1.33-1,4.13-2.28,8.4-1.51,4.8-2.49,8.47-2.94,11-.53,3-.43,5.55.3,7.65.73,2.1,2.19,3.15,4.39,3.15s3.78-.53,4.93-1.6c1.15-1.07,2.38-3.2,3.68-6.4,1.72-4.07,3.7-7.93,5.95-11.6,2.25-3.67,4.37-6.62,6.36-8.85,1.99-2.23,3.42-3.35,4.29-3.35.73,0,1.01.53.82,1.6-.26,1.47-1.26,4.87-3,10.2-2.02,6.13-3.26,10.53-3.73,13.2-.4,2.27-.2,3.97.6,5.1.8,1.13,2.3,1.7,4.5,1.7,2.33,0,4.11-.55,5.34-1.65,1.23-1.1,2.06-2.92,2.51-5.45.79-4.47,1.7-8.52,2.74-12.15,1.04-3.63,2.25-7.48,3.64-11.55,1.58-4.8,2.52-8.07,2.83-9.8.38-2.13.11-3.75-.8-4.85ZM161.01,75.81c-1.87,1.73-3.88,2.6-6.01,2.6-1.93,0-3.45-.97-4.54-2.9-1.09-1.93-1.32-4.73-.67-8.4.82-4.67,2.34-8.28,4.56-10.85,2.22-2.57,4.66-3.85,7.33-3.85h.5c-.39,1.07-.68,2.13-.86,3.2-.45,2.53-.32,4.93.38,7.2.7,2.27,1.96,4.1,3.78,5.5-1.11,3.27-2.6,5.77-4.47,7.5ZM206.11,75.81c-1.87,1.73-3.88,2.6-6.01,2.6-1.93,0-3.45-.97-4.54-2.9-1.09-1.93-1.32-4.73-.67-8.4.82-4.67,2.34-8.28,4.56-10.85,2.22-2.57,4.66-3.85,7.33-3.85h.5c-.39,1.07-.68,2.13-.86,3.2-.45,2.53-.32,4.93.38,7.2.7,2.27,1.96,4.1,3.78,5.5-1.11,3.27-2.6,5.77-4.47,7.5Z"/><g id="irFfJq.tif"><path class="cls-1" d="M19.04,71.94c2.77-4.73,6.02-9.25,8.2-14.24,6.1-13.93,11.77-28.04,17.6-42.09.67-1.62,1.26-3.27,1.95-4.87,1.08-2.53,2.9-4.31,5.45-5.42,2.62-1.15,5.15-1.16,7.43.61,2.11,1.65,2.22,4.04,1.86,6.48-.74,5.11-1.63,10.2-2.19,15.33-1.33,12.05-2.17,24.12.27,36.12.53,2.62,1.49,5.22,2.68,7.62,1.59,3.19,3.86,3.37,5.7.28,2.22-3.73,4.29-7.66,5.69-11.76,4.09-11.95,6.73-24.27,7.99-36.85.46-4.59.5-9.24.56-13.86.07-5.37,6.04-10.31,11.22-9.12,2.53.58,4.56,2.85,4.49,6.08-.13,6.38-.1,12.85-1.17,19.1-1.78,10.41-4.07,20.76-6.73,30.99-2.3,8.83-5.69,17.36-11.64,24.49-5.24,6.28-12.03,9.25-20.29,7.83-6.24-1.08-9.67-5.6-11.57-11.07-1.59-4.58-2.28-9.48-3.31-14.25-.27-1.25-.34-2.54-.54-4.06-3.19,5.38-5.92,10.68-9.34,15.49-2.76,3.88-5.95,7.71-9.69,10.6-8.91,6.89-18.26,3.57-20.9-7.34-1.41-5.83-2.34-11.89-2.59-17.88C-.48,43.92.64,27.75,3.86,11.79c.56-2.76,1.61-5.65,3.23-7.91,1.24-1.73,3.61-3.23,5.72-3.63,5.16-1,8.21,2.48,7.22,7.64-.72,3.78-1.73,7.51-2.25,11.31-2.24,16.55-3.41,33.13-.4,49.72.17.92.48,1.82.72,2.73.31.09.62.19.94.28Z"/></g></svg>